<?xml version="1.0" encoding="UTF-8"?>
<svg width="175px" height="31px" viewBox="0 0 175 31" version="1.1" xmlns="http://www.w3.org/2000/svg" xmlns:xlink="http://www.w3.org/1999/xlink">
    <!-- Generator: Sketch 42 (36781) - http://www.bohemiancoding.com/sketch -->
    <title>logo-white</title>
    <desc>Created with Sketch.</desc>
    <defs></defs>
    <g id="**-Docs-(Outside-&amp;-Inside)" stroke="none" stroke-width="1" fill="none" fill-rule="evenodd">
        <g id="gym-list-copy" transform="translate(-33.000000, -23.000000)" fill="#FFFFFF">
            <g id="logo-white" transform="translate(33.000000, 23.000000)">
                <g id="rolando-copy">
                    <g id="Group">
                        <path d="M7.27896945,0.0232432952 L23.74918,0.0232432952 C27.7279387,0.0232432952 30.9664633,3.26687494 30.9664633,7.2519081 L30.9664633,23.7480919 C30.9664633,27.7331251 27.7279387,30.9767567 23.74918,30.9767567 L7.27896945,30.9767567 C3.30021073,30.9767567 0.0616861818,27.7331251 0.0616861818,23.7480919 L0.0616861818,7.2519081 C0.0616861818,3.26687494 3.30021073,0.0232432952 7.27896945,0.0232432952 Z M19.0918733,25.3853536 C18.6909131,24.767519 18.7834424,23.9334423 18.4441684,23.2538242 C18.0123651,22.3270723 17.4880325,22.1417219 16.6861122,22.1108302 C15.8841918,22.0799385 14.9897422,22.5124227 14.7121544,22.6977731 C14.4345665,22.9140152 13.3550584,23.6554167 13.5401169,25.5089205 C13.7251754,27.3624243 16.1926227,28.0111506 16.7477984,27.9802589 C16.4085244,27.7949085 16.0692504,27.3624243 16.1309365,26.9608318 C17.7347773,28.2273927 19.0301871,27.7640168 19.0301871,27.7640168 C18.2899529,27.053507 18.1974236,25.7251626 18.2282667,24.6439521 C18.5058545,25.0146528 18.6909131,25.2000032 19.0918733,25.3853536 Z M17.1796016,26.250322 C15.7916625,26.3121055 14.0027633,24.6439521 14.0952925,23.964334 C14.1878218,23.2847159 14.7429974,22.9140152 14.8046836,22.8831235 C14.8663698,22.8522317 15.5757609,22.3270723 16.1617796,22.6050979 C16.8094845,23.0375821 16.9020138,23.5318498 16.9328569,24.0570092 C16.9637,24.7057355 17.2104447,25.1691115 17.2104447,25.1691115 C17.2104447,25.1691115 16.7477984,25.0455446 16.5010536,24.5203851 C16.4702105,25.2308949 16.9328569,26.0031882 17.1796016,26.250322 Z M19.2769318,11.2987247 C18.5058545,11.7003172 17.642248,11.9474511 16.7169553,11.9474511 C15.0822714,11.9474511 13.6018031,11.2060495 12.6148242,10.0630555 C11.5661591,11.8238841 9.74641672,17.10637 13.2008429,22.7904483 C13.9410771,22.0490467 14.6813113,21.4003204 15.7916625,21.21497 C15.7916625,15.9015925 17.1179154,14.1098722 19.2769318,11.2987247 Z M16.624426,10.6191067 C18.66007,10.6191067 20.2947538,8.95095325 20.2947538,6.88120734 C20.2947538,4.81146144 18.66007,3.14330802 16.624426,3.14330802 C14.588782,3.14330802 12.9540982,4.81146144 12.9540982,6.88120734 C12.9540982,8.95095325 14.588782,10.6191067 16.624426,10.6191067 Z M18.999344,13.1213368 C19.338618,14.4187895 20.695714,15.2219744 21.6210067,14.9439489 C21.4976344,15.5926752 21.3125758,17.4152873 21.8369084,18.3729309 C22.05281,16.5812105 22.4846133,15.7162421 23.9959247,13.7391714 C20.695714,14.357006 20.35644,13.7082797 18.999344,13.1213368 Z M8.66690854,9.7232465 C8.88281018,8.36401038 8.54353618,7.03566599 7.803302,6.38693966 C7.92667436,8.11687654 7.92667436,9.66146304 6.84716618,11.267833 C8.38932072,10.4028646 9.56135818,10.464648 10.9801404,11.2987247 C10.6408664,9.90859688 9.71557363,9.53789612 8.66690854,9.7232465 Z" id="Combined-Shape"></path>
                        <path d="M41.8925665,14.5057394 C42.0960898,14.5057394 42.2414636,14.3601364 42.2414636,14.1562921 L42.2414636,11.8557644 C42.2414636,11.6519202 42.0960898,11.5063172 41.8925665,11.5063172 L41.0203239,11.5063172 C40.0027075,11.5645584 38.9850911,11.8266438 37.7639515,12.9623474 L37.589503,12.0013674 C37.5022787,11.7684026 37.3859797,11.6519202 37.1824564,11.6519202 L35.6124197,11.6519202 C35.4088964,11.6519202 35.2635227,11.7975232 35.2635227,12.0013674 L35.2635227,22.9507146 C35.2635227,23.1545588 35.4088964,23.3001618 35.6124197,23.3001618 L38.2000728,23.3001618 C38.4035961,23.3001618 38.5489698,23.1545588 38.5489698,22.9507146 L38.5489698,17.1265937 C38.5489698,15.787046 38.9560164,14.6222218 41.0203239,14.5057394 L41.8925665,14.5057394 Z M48.4842285,11.5063172 C45.1697066,11.5063172 42.407605,14.1562921 42.407605,17.4177998 C42.407605,20.6793074 45.1697066,23.4457648 48.4842285,23.4457648 C51.6533767,23.4457648 54.328254,20.6793074 54.328254,17.4177998 C54.328254,14.1562921 51.6533767,11.5063172 48.4842285,11.5063172 L48.4842285,11.5063172 Z M48.4551538,20.5337044 C46.9432666,20.5337044 45.6930522,19.2232772 45.6930522,17.4469204 C45.6930522,15.6414429 46.9432666,14.5639806 48.4551538,14.5639806 C49.8507419,14.5639806 51.0428068,15.6705635 51.0428068,17.4469204 C51.0428068,19.2232772 49.8507419,20.5337044 48.4551538,20.5337044 L48.4551538,20.5337044 Z M61.268813,20.5337044 C59.7569258,20.5337044 58.5067114,19.2232772 58.5067114,17.4469204 C58.5067114,15.6414429 59.7569258,14.5639806 61.268813,14.5639806 C61.9084576,14.5639806 63.0132982,14.5931012 63.5947933,15.0590309 C63.7692418,15.1755133 63.9146156,15.2337545 64.0309146,15.2337545 C64.1181389,15.2337545 64.1762884,15.2046339 64.2344379,15.1463927 L65.5137271,13.4573976 C65.5718766,13.3991564 65.6300261,13.3117946 65.6300261,13.1953122 C65.6300261,13.1079504 65.6009513,12.9623474 65.5428018,12.8749855 C64.4961107,11.8557644 62.8388497,11.5063172 61.2978878,11.5063172 C57.9833659,11.5063172 55.2212643,14.1562921 55.2212643,17.4177998 C55.2212643,20.6793074 57.9833659,23.4457648 61.2978878,23.4457648 C62.8388497,23.4457648 64.4088864,23.1836794 65.5137271,21.960614 C65.5718766,21.8732522 65.6009513,21.7276492 65.6009513,21.6402874 C65.6009513,21.523805 65.5428018,21.4364431 65.4846523,21.3782019 L64.2344379,19.8056893 C64.1762884,19.7474481 64.1181389,19.7183275 64.0309146,19.7183275 C63.9146156,19.7183275 63.7692418,19.7765687 63.5947933,19.8930511 C62.8388497,20.5337044 61.9084576,20.5337044 61.268813,20.5337044 L61.268813,20.5337044 Z M77.6945596,12.0013674 C77.6945596,11.7975232 77.5491858,11.6519202 77.3456626,11.6519202 L74.2346639,11.6519202 C74.0020659,11.6519202 73.8857669,11.8266438 73.7694679,12.0013674 L70.2804974,16.6606641 L70.2804974,7.10910593 C70.2804974,6.9052617 70.1351237,6.75965868 69.9316004,6.75965868 L67.3439473,6.75965868 C67.140424,6.75965868 66.9950503,6.9052617 66.9950503,7.10910593 L66.9950503,22.9507146 C66.9950503,23.1545588 67.140424,23.3001618 67.3439473,23.3001618 L69.9316004,23.3001618 C70.1351237,23.3001618 70.2804974,23.1545588 70.2804974,22.9507146 L70.2804974,18.0584531 L73.7694679,22.9507146 C73.8566921,23.1254382 74.0892902,23.3001618 74.3218882,23.3001618 L77.3456626,23.3001618 C77.5491858,23.3001618 77.6945596,23.1545588 77.6945596,22.9507146 L73.6822436,17.2430762 L77.6945596,12.0013674 Z M88.9740748,18.1166943 C88.9740748,17.621644 89.0031495,17.7090058 89.0031495,17.3013174 C89.0031495,13.57388 86.5608702,11.5063172 83.3626473,11.5063172 C79.4375556,11.5063172 77.7512199,14.3310157 77.7512199,17.5634028 C77.7512199,21.669408 80.5133215,23.4457648 83.8278434,23.4457648 C85.3688053,23.4457648 87.055141,23.1836794 88.0727574,21.9023728 C88.1309069,21.815011 88.1599817,21.669408 88.1599817,21.5820462 C88.1599817,21.4655638 88.1309069,21.3490813 88.0727574,21.2908401 L87.2005148,19.8348099 C87.1423653,19.7765687 87.0842158,19.7474481 86.9969915,19.7474481 C86.8806925,19.7474481 86.7353188,19.8056893 86.5608702,19.9221717 C85.9503004,20.4754632 84.6419365,20.708428 83.7987686,20.708428 C82.9556008,20.708428 81.0657418,20.417222 81.0657418,18.4661415 L88.6251777,18.4661415 C88.828701,18.4661415 88.9740748,18.3205385 88.9740748,18.1166943 L88.9740748,18.1166943 Z M83.4207968,14.5639806 C84.2930394,14.5639806 85.8049266,15.0007896 85.8049266,16.3985786 L81.0657418,16.3985786 C81.0657418,15.0299102 82.5194795,14.5639806 83.4207968,14.5639806 L83.4207968,14.5639806 Z M97.6172114,14.5057394 C97.8207346,14.5057394 97.9661084,14.3601364 97.9661084,14.1562921 L97.9661084,11.8557644 C97.9661084,11.6519202 97.8207346,11.5063172 97.6172114,11.5063172 L95.1167826,11.5063172 L95.1167826,7.10910593 C95.1167826,6.9052617 94.9714088,6.75965868 94.7678855,6.75965868 L92.1802324,6.75965868 C91.9767092,6.75965868 91.8313354,6.9052617 91.8313354,7.10910593 L91.8313354,11.5063172 L89.8542521,11.5063172 C89.6507289,11.5063172 89.5053551,11.6519202 89.5053551,11.8557644 L89.5053551,14.1562921 C89.5053551,14.3601364 89.6507289,14.5057394 89.8542521,14.5057394 L91.8313354,14.5057394 L91.8313354,18.4952621 C91.8313354,22.3683025 93.2850731,23.4457648 95.7855019,23.4457648 C96.8031183,23.4457648 97.1229406,23.4457648 97.9661084,23.1545588 C97.9951832,23.1545588 98.1405569,23.0089558 98.1405569,22.8633528 C98.1405569,22.8051115 98.1405569,22.7177497 98.1114822,22.6595085 L97.6462861,20.6793074 C97.6172114,20.562825 97.4427629,20.4463426 97.3264638,20.4463426 C97.2392396,20.4463426 97.1810901,20.4463426 97.1229406,20.4754632 C96.7449688,20.5337044 96.5123707,20.5337044 96.2216232,20.5337044 C95.2330816,20.5337044 95.1167826,20.0677748 95.1167826,17.8546088 L95.1167826,14.5057394 L97.6172114,14.5057394 Z M100.180316,23.4748854 C100.180316,25.6880513 99.9767922,26.153981 99.2499234,26.153981 C98.6975031,26.153981 98.2032323,26.153981 97.767111,25.9792574 C97.7089615,25.9501368 97.6508119,25.9501368 97.5635877,25.9501368 C97.4472887,25.9501368 97.3309897,25.9792574 97.2728401,26.0666192 L96.6622703,27.8429761 C96.6331956,27.9012173 96.6331956,27.9885791 96.6331956,28.0468203 C96.6331956,28.1924233 96.7785693,28.3089057 96.8076441,28.3380263 C97.9124847,29.0660414 98.4939798,29.0660414 99.5115962,29.0660414 C102.012025,29.0660414 103.465763,28.1050615 103.465763,23.7952121 L103.465763,12.0013674 C103.465763,11.7975232 103.320389,11.6519202 103.116866,11.6519202 L100.529213,11.6519202 C100.325689,11.6519202 100.180316,11.7975232 100.180316,12.0013674 L100.180316,23.4748854 Z M99.9186427,8.50689493 C99.9186427,9.55523668 100.761811,10.3997342 101.808502,10.3997342 C102.884268,10.3997342 103.75651,9.55523668 103.75651,8.50689493 C103.75651,7.42943258 102.884268,6.55581446 101.808502,6.55581446 C100.761811,6.55581446 99.9186427,7.42943258 99.9186427,8.50689493 L99.9186427,8.50689493 Z M110.952727,11.5063172 C107.638205,11.5063172 104.876103,14.1562921 104.876103,17.4177998 C104.876103,20.6793074 107.638205,23.4457648 110.952727,23.4457648 C114.121875,23.4457648 116.796752,20.6793074 116.796752,17.4177998 C116.796752,14.1562921 114.121875,11.5063172 110.952727,11.5063172 L110.952727,11.5063172 Z M110.923652,20.5337044 C109.411765,20.5337044 108.161551,19.2232772 108.161551,17.4469204 C108.161551,15.6414429 109.411765,14.5639806 110.923652,14.5639806 C112.31924,14.5639806 113.511305,15.6705635 113.511305,17.4469204 C113.511305,19.2232772 112.31924,20.5337044 110.923652,20.5337044 L110.923652,20.5337044 Z M126.706345,22.9507146 C126.79357,23.1836794 126.909869,23.3001618 127.113392,23.3001618 L128.741578,23.3001618 C128.945101,23.3001618 129.090475,23.1545588 129.090475,22.9507146 L129.090475,12.0013674 C129.090475,11.7975232 128.945101,11.6519202 128.741578,11.6519202 L126.153925,11.6519202 C125.950402,11.6519202 125.805028,11.7975232 125.805028,12.0013674 L125.805028,17.9128501 C125.805028,19.3397597 125.194458,20.5337044 123.74072,20.5337044 C121.676413,20.5337044 121.501964,19.3397597 121.501964,17.9128501 L121.501964,12.0013674 C121.501964,11.7975232 121.356591,11.6519202 121.153067,11.6519202 L118.565414,11.6519202 C118.361891,11.6519202 118.216517,11.7975232 118.216517,12.0013674 L118.216517,18.2331767 C118.216517,20.9996341 119.670255,23.4457648 122.955702,23.4457648 C124.089617,23.4457648 125.223533,23.2710412 126.590046,21.9897346 L126.706345,22.9507146 Z M137.347019,14.5057394 C137.550542,14.5057394 137.695916,14.3601364 137.695916,14.1562921 L137.695916,11.8557644 C137.695916,11.6519202 137.550542,11.5063172 137.347019,11.5063172 L136.474776,11.5063172 C135.45716,11.5645584 134.439543,11.8266438 133.218404,12.9623474 L133.043955,12.0013674 C132.956731,11.7684026 132.840432,11.6519202 132.636909,11.6519202 L131.066872,11.6519202 C130.863349,11.6519202 130.717975,11.7975232 130.717975,12.0013674 L130.717975,22.9507146 C130.717975,23.1545588 130.863349,23.3001618 131.066872,23.3001618 L133.654525,23.3001618 C133.858048,23.3001618 134.003422,23.1545588 134.003422,22.9507146 L134.003422,17.1265937 C134.003422,15.787046 134.410469,14.6222218 136.474776,14.5057394 L137.347019,14.5057394 Z M141.334786,12.0013674 C141.247561,11.7684026 141.131262,11.6519202 140.927739,11.6519202 L139.328628,11.6519202 C139.125104,11.6519202 138.979731,11.7975232 138.979731,12.0013674 L138.979731,22.9507146 C138.979731,23.1545588 139.125104,23.3001618 139.328628,23.3001618 L141.916281,23.3001618 C142.119804,23.3001618 142.265178,23.1545588 142.265178,22.9507146 L142.265178,17.1265937 C142.265178,15.6996841 142.875748,14.5057394 144.329485,14.5057394 C146.393793,14.5057394 146.568241,15.6996841 146.568241,17.1265937 L146.568241,22.9507146 C146.568241,23.1545588 146.713615,23.3001618 146.917138,23.3001618 L149.504792,23.3001618 C149.708315,23.3001618 149.853689,23.1545588 149.853689,22.9507146 L149.853689,16.7189053 C149.853689,13.9524479 148.399951,11.5063172 145.114504,11.5063172 C143.980588,11.5063172 142.846673,11.6810408 141.48016,12.9623474 L141.334786,12.0013674 Z M162.496308,18.1166943 C162.496308,17.621644 162.525383,17.7090058 162.525383,17.3013174 C162.525383,13.57388 160.083104,11.5063172 156.884881,11.5063172 C152.959789,11.5063172 151.273453,14.3310157 151.273453,17.5634028 C151.273453,21.669408 154.035555,23.4457648 157.350077,23.4457648 C158.891039,23.4457648 160.577375,23.1836794 161.594991,21.9023728 C161.65314,21.815011 161.682215,21.669408 161.682215,21.5820462 C161.682215,21.4655638 161.65314,21.3490813 161.594991,21.2908401 L160.722748,19.8348099 C160.664599,19.7765687 160.606449,19.7474481 160.519225,19.7474481 C160.402926,19.7474481 160.257552,19.8056893 160.083104,19.9221717 C159.472534,20.4754632 158.16417,20.708428 157.321002,20.708428 C156.477834,20.708428 154.587975,20.417222 154.587975,18.4661415 L162.147411,18.4661415 C162.350934,18.4661415 162.496308,18.3205385 162.496308,18.1166943 L162.496308,18.1166943 Z M156.94303,14.5639806 C157.815273,14.5639806 159.32716,15.0007896 159.32716,16.3985786 L154.587975,16.3985786 C154.587975,15.0299102 156.041713,14.5639806 156.94303,14.5639806 L156.94303,14.5639806 Z M163.521859,11.6519202 C163.318336,11.6519202 163.172962,11.7975232 163.172962,12.0013674 L167.243428,20.4463426 L163.609084,27.9303379 C163.609084,28.1341821 163.754457,28.2797851 163.957981,28.2797851 L166.778232,28.2797851 C167.01083,28.2797851 167.156204,28.1050615 167.243428,27.9303379 L174.919163,12.0013674 C174.919163,11.7975232 174.773789,11.6519202 174.570266,11.6519202 L171.808164,11.6519202 C171.575566,11.6519202 171.430192,11.8266438 171.342968,12.0013674 L169.046063,16.8645083 L166.749157,12.0013674 C166.661933,11.8266438 166.516559,11.6519202 166.283961,11.6519202 L163.521859,11.6519202 Z" id="rocketjourney-copy"></path>
                    </g>
                </g>
            </g>
        </g>
    </g>
</svg>